<svg xmlns="http://www.w3.org/2000/svg" xmlns:xlink="http://www.w3.org/1999/xlink" viewBox="0 0 1529.81 478.27"><defs><style>.cls-1{fill:none;}.cls-2{fill:#fff;}.cls-3{fill:url(#radial-gradient);}</style><radialGradient id="radial-gradient" cx="109.33" cy="240.19" r="250.43" gradientUnits="userSpaceOnUse"><stop offset="0" stop-color="#1f2d39"/><stop offset="0.4" stop-color="#1f2a36" stop-opacity="0.47"/><stop offset="0.76" stop-color="#1f2935" stop-opacity="0.12"/><stop offset="1" stop-color="#1f2834" stop-opacity="0"/></radialGradient></defs><g id="Layer_2" data-name="Layer 2"><g id="Layer_1-2" data-name="Layer 1"><rect class="cls-1" width="1529.81" height="478.27"/><path class="cls-2" d="M475.8,283.87q-22.43,0-32.22-9.78t-9.78-31.36V87.1h46.32v151c0,4.41.91,7.44,2.73,9.06s4.56,2.45,8.2,2.45a43.4,43.4,0,0,0,13.81-2V279a68.91,68.91,0,0,1-13.09,3.74A94,94,0,0,1,475.8,283.87Z"/><path class="cls-2" d="M565,283.87a62,62,0,0,1-24-4.6A39.21,39.21,0,0,1,523.27,265q-6.62-9.63-6.62-24,0-21,14.25-32.94t42.72-11.94h38V193q0-10.36-6.9-14.82t-25.9-4.46a149.15,149.15,0,0,0-45.74,7.19V151a126.76,126.76,0,0,1,24.6-6.61,174,174,0,0,1,30.64-2.59q31.63,0,49.62,12.94t18,41.14V281H615.33L613,269.49a50.55,50.55,0,0,1-19.13,10.64Q582.25,283.87,565,283.87Zm14.67-28.48a44.61,44.61,0,0,0,19-3.74,37.15,37.15,0,0,0,13-9.49V222.88h-32.8q-20.43,0-20.42,16.4,0,7.49,5.18,11.8T579.66,255.39Z"/><path class="cls-2" d="M683.8,281V144.64H727l1.44,11.79a89.34,89.34,0,0,1,21-10.21,80.82,80.82,0,0,1,27-4.46q26.46,0,38.55,12.66t12.08,39.12V281H780.74V197.28q0-11.5-4.89-16.4T758.3,176a37.38,37.38,0,0,0-15.24,3.45,42.26,42.26,0,0,0-12.95,8.64V281Z"/><path class="cls-2" d="M913.65,331.63q-10.08,0-21.29-.87t-21.29-2.58a130.81,130.81,0,0,1-17.26-4V292.5a151,151,0,0,0,27.62,5.75,238.78,238.78,0,0,0,29.63,2q17.55,0,26.32-1.87t8.78-6.47a5.39,5.39,0,0,0-3.46-5.47Q939.25,285,929.18,285H891.5q-18.42,0-28.63-6.62t-10.21-19.27a28.54,28.54,0,0,1,5.32-16.4q5.32-7.75,15.68-11.5-11.8-6-17.84-15.25t-6-23.3q0-26.48,17.12-38.7t50.2-12.22a134.13,134.13,0,0,1,15.39,1q8.49,1,12.52,1.88h52.35l-1.15,28.76H976.36q7.2,7.2,7.2,21.29,0,19.86-12.81,31.94t-38.69,12.08a81.77,81.77,0,0,1-8.49-.44q-4.17-.42-8.19-.71a45.4,45.4,0,0,0-12.81,3.16c-3.55,1.54-5.32,3.74-5.32,6.62,0,2.3.91,3.84,2.73,4.6a22.18,22.18,0,0,0,8.2,1.15H943q21,0,32.65,9.64t11.66,28Q987.3,331.63,913.65,331.63Zm3.74-118.53q15.24,0,21-5.17t5.75-17.27q0-12.07-5.9-17.55t-20.85-5.46q-14.1,0-20.28,5.32t-6.19,17.69q0,11.51,5.76,17T917.39,213.1Z"/><path class="cls-2" d="M1059.22,281l-53.8-136.36h48.33l29.92,88.6,30.2-88.6h48.34L1108.41,281Z"/><path class="cls-2" d="M1243.05,283.87q-35.68,0-57.25-17.69t-21.58-53.36q0-32.5,17.84-51.79t53.51-19.27q32.51,0,50.34,16.68t17.84,44.88v24.46h-96.66q3.15,13.51,14.81,18.84t31.79,5.32a133.41,133.41,0,0,0,22.87-2,95,95,0,0,0,19.42-5.17V275a86.6,86.6,0,0,1-23.3,6.75A188.51,188.51,0,0,1,1243.05,283.87Zm-36-82.85h56.38v-6q0-10.06-6-16t-20.43-5.9q-16.68,0-23.3,6.77T1207.09,201Z"/><path class="cls-2" d="M1384.58,283.87q-19.85,0-33.94-6.33t-21.58-20.85q-7.49-14.53-7.48-39,0-24.75,8.63-41.58t23.74-25.6q15.09-8.78,34.66-8.77a73.38,73.38,0,0,1,19.13,2.3,61,61,0,0,1,16,6.9V87.1H1470V281h-40l-2.59-11.51a57.33,57.33,0,0,1-18.7,10.79A73.91,73.91,0,0,1,1384.58,283.87Zm13.24-33.66a35.77,35.77,0,0,0,25.89-10.35V184.62q-9.78-8.91-25-8.92-14.67,0-22.3,11.08T1368.76,218q0,19.57,7.34,25.89T1397.82,250.21Z"/><path class="cls-2" d="M194.3,59.78v29.9l54.43,27.21a9.69,9.69,0,0,1,5.35,8.67v218.2c0,19.39-26.11,37.71-59.78,29.89v44.84l179.35-89.68v-269Z"/><polygon class="cls-2" points="59.78 82.2 59.78 306.39 194.3 373.65 194.3 149.46 59.78 82.2"/><path class="cls-2" d="M209.23,142c21.16,3.66,36.69-7.44,29.89-14.94L104.62,59.78v15L89.68,82.2,194.3,134.51Z"/><path class="cls-3" d="M254.08,269v74.73c0,7.3-3.7,14.45-10.12,20.11l99.91-49.95Z"/><path class="cls-2" d="M464.76,399.31q-9.64,0-14.78-5.21t-5.12-14.21q0-9.54,5-14.84t14.86-5.3a34.66,34.66,0,0,1,6.23.51,30.82,30.82,0,0,1,5.21,1.4v7a28.21,28.21,0,0,0-10.84-2.09q-6.56,0-9.42,3.28t-2.86,10q0,12.63,12.4,12.63A30.29,30.29,0,0,0,471,392a26.32,26.32,0,0,0,5.24-1.52v7.1a41,41,0,0,1-5.21,1.25A37.9,37.9,0,0,1,464.76,399.31Z"/><path class="cls-2" d="M500.27,398.72V370.48h7.45l.36,2.91a24.18,24.18,0,0,1,4.73-2.17,28,28,0,0,1,5.57-1.34V376c-1.07.16-2.24.39-3.51.71s-2.48.68-3.64,1.07a18.58,18.58,0,0,0-2.91,1.26v19.72Z"/><path class="cls-2" d="M554.49,399.31q-7.32,0-11.62-3.66t-4.29-11.11q0-6.74,3.61-10.7t10.75-4q6.55,0,10,3.43a12,12,0,0,1,3.49,9v5.13H546a6.11,6.11,0,0,0,3.13,4.64,15.72,15.72,0,0,0,7,1.26,26.28,26.28,0,0,0,4.62-.42,21.84,21.84,0,0,0,4-1.07v5.72a19,19,0,0,1-4.59,1.34A35,35,0,0,1,554.49,399.31ZM546,382.45h13.41V380.9a5.13,5.13,0,0,0-1.43-3.84q-1.44-1.4-4.83-1.4-4,0-5.57,1.61T546,382.45Z"/><path class="cls-2" d="M599.42,399.31a12.43,12.43,0,0,1-5-1,8.68,8.68,0,0,1-3.69-2.92,8,8,0,0,1-1.4-4.86,8.3,8.3,0,0,1,2.95-6.67q2.94-2.5,8.72-2.5h8.35v-.78a4.29,4.29,0,0,0-1.46-3.69c-1-.71-2.93-1.07-5.87-1.07a29,29,0,0,0-9.3,1.49v-5.66a24.62,24.62,0,0,1,4.8-1.28,34.85,34.85,0,0,1,6.17-.51q6.38,0,9.86,2.59t3.48,8.31v17.94h-7l-.42-2.56a11.89,11.89,0,0,1-4.11,2.32A19.4,19.4,0,0,1,599.42,399.31Zm2.2-5.3a11.25,11.25,0,0,0,4.65-.89,8.53,8.53,0,0,0,3.1-2.27v-4.47H601.2q-4.69,0-4.7,3.88C596.5,392.76,598.2,394,601.62,394Z"/><path class="cls-2" d="M653.22,399.31q-4.89,0-7.24-2.56a9.9,9.9,0,0,1-2.35-7V376.67h-4v-6.19h4V364.4l8-2.39v8.47h7.15l-.48,6.19h-6.67v12.57a3.93,3.93,0,0,0,1.07,3.19,5.28,5.28,0,0,0,3.34.87,10.81,10.81,0,0,0,3.45-.6v5.54a13.45,13.45,0,0,1-2.86.81A21.26,21.26,0,0,1,653.22,399.31Z"/><path class="cls-2" d="M684.74,398.72V376.43h-4.23l.71-5.95h11.56v28.24Zm-.66-33.43V359h8.76v6.31Z"/><path class="cls-2" d="M718.1,398.72V370.48h7.45l.3,2.68a16.9,16.9,0,0,1,4.38-2.3,16,16,0,0,1,5.57-1q5.6,0,8.16,2.62t2.56,8.1v18.12h-8V381c0-1.91-.39-3.25-1.16-4s-2.22-1.19-4.32-1.19a9.27,9.27,0,0,0-3.73.83,10.15,10.15,0,0,0-3.12,2.09v20Z"/><path class="cls-2" d="M783.46,409.2a53.12,53.12,0,0,1-6.46-.41,28.2,28.2,0,0,1-5.57-1.2v-6a33.67,33.67,0,0,0,5.6,1.22,43.53,43.53,0,0,0,6,.45,27.82,27.82,0,0,0,6-.45c1.24-.3,1.85-.83,1.85-1.58a1.31,1.31,0,0,0-.8-1.31,10,10,0,0,0-3.37-.36H779q-7.56,0-7.56-5.6a5.64,5.64,0,0,1,1-3.16,6.4,6.4,0,0,1,3-2.26q-4.83-2.44-4.83-8.22c0-3.66,1.14-6.31,3.4-8s5.62-2.47,10.07-2.47a24,24,0,0,1,3,.21c1.09.14,1.91.27,2.47.39h10.61l-.18,5.06H795.5a6.29,6.29,0,0,1,1.85,4.83,9.13,9.13,0,0,1-2.74,6.94q-2.75,2.6-8.11,2.59a17.74,17.74,0,0,1-1.82-.09l-1.75-.21a9.78,9.78,0,0,0-3,.84,1.78,1.78,0,0,0-1.22,1.6c0,.92.81,1.37,2.44,1.37h8a10.09,10.09,0,0,1,6.62,1.94,6.91,6.91,0,0,1,2.32,5.63,6.62,6.62,0,0,1-3.75,6.2Q790.55,409.2,783.46,409.2Zm.66-23.83q3.57,0,5-1.22c.94-.81,1.4-2.19,1.4-4.14a5.53,5.53,0,0,0-1.4-4.23c-.93-.88-2.59-1.31-5-1.31s-3.89.42-4.89,1.28-1.49,2.27-1.49,4.26a5.3,5.3,0,0,0,1.4,4.05Q780.55,385.37,784.12,385.37Z"/><path class="cls-2" d="M867,409.2a53.28,53.28,0,0,1-6.47-.41,28.36,28.36,0,0,1-5.57-1.2v-6a33.9,33.9,0,0,0,5.6,1.22,43.64,43.64,0,0,0,6,.45,27.93,27.93,0,0,0,6-.45c1.23-.3,1.84-.83,1.84-1.58a1.3,1.3,0,0,0-.8-1.31,10,10,0,0,0-3.37-.36h-7.68q-7.57,0-7.57-5.6a5.64,5.64,0,0,1,.95-3.16,6.4,6.4,0,0,1,3-2.26q-4.82-2.44-4.82-8.22,0-5.49,3.39-8t10.07-2.47a23.72,23.72,0,0,1,3,.21c1.09.14,1.92.27,2.47.39h10.61l-.18,5.06H879a6.29,6.29,0,0,1,1.85,4.83,9.09,9.09,0,0,1-2.74,6.94q-2.75,2.6-8.1,2.59a17.46,17.46,0,0,1-1.82-.09l-1.76-.21a9.86,9.86,0,0,0-3,.84,1.8,1.8,0,0,0-1.22,1.6c0,.92.81,1.37,2.44,1.37h8a10.06,10.06,0,0,1,6.61,1.94,6.91,6.91,0,0,1,2.32,5.63,6.62,6.62,0,0,1-3.75,6.2Q874.09,409.2,867,409.2Zm.65-23.83c2.39,0,4-.41,5-1.22S874,382,874,380a5.57,5.57,0,0,0-1.4-4.23c-.94-.88-2.59-1.31-5-1.31s-3.89.42-4.88,1.28-1.49,2.27-1.49,4.26a5.27,5.27,0,0,0,1.4,4.05Q864.08,385.37,867.65,385.37Z"/><path class="cls-2" d="M914.9,399.31q-4.11,0-6-1.9T907,391.33V358.56h8v32.11a2.78,2.78,0,0,0,.6,2.06,2.38,2.38,0,0,0,1.72.57,8.72,8.72,0,0,0,2.8-.42v5.54A14.28,14.28,0,0,1,914.9,399.31Z"/><path class="cls-2" d="M957.38,399.31q-7.92,0-11.62-3.84t-3.69-10.87q0-7,3.72-10.88t11.59-3.84q7.92,0,11.65,3.84t3.72,10.88q0,7-3.69,10.87T957.38,399.31Zm0-6.85c2.58,0,4.43-.58,5.54-1.76s1.67-3.2,1.67-6.1-.55-4.94-1.67-6.11-3-1.76-5.54-1.76-4.37.59-5.48,1.76-1.67,3.21-1.67,6.11.56,4.93,1.67,6.1S954.84,392.46,957.38,392.46Z"/><path class="cls-2" d="M1013.45,399.31a15.06,15.06,0,0,1-5.19-.8,12.91,12.91,0,0,1-4-2.41l-.41,2.62h-7V358.56h8V372a13.37,13.37,0,0,1,3.87-1.6,18.24,18.24,0,0,1,4.47-.54q6.07,0,9.62,3.43t3.55,11.05q0,7.62-3.49,11.29T1013.45,399.31Zm-2.27-5.9c2.59,0,4.4-.75,5.46-2.26s1.58-3.77,1.58-6.79-.57-5.35-1.7-6.65-2.93-1.93-5.4-1.93a11.32,11.32,0,0,0-3.48.53,7.77,7.77,0,0,0-2.77,1.55v13a7.87,7.87,0,0,0,2.83,1.91A9.2,9.2,0,0,0,1011.18,393.41Z"/><path class="cls-2" d="M1059.33,399.31a12.43,12.43,0,0,1-5-1,8.68,8.68,0,0,1-3.69-2.92,8,8,0,0,1-1.4-4.86,8.3,8.3,0,0,1,3-6.67q2.94-2.5,8.73-2.5h8.34v-.78a4.29,4.29,0,0,0-1.46-3.69c-1-.71-2.93-1.07-5.87-1.07a29,29,0,0,0-9.3,1.49v-5.66a24.62,24.62,0,0,1,4.8-1.28,34.85,34.85,0,0,1,6.17-.51q6.38,0,9.86,2.59t3.48,8.31v17.94h-7l-.41-2.56a12,12,0,0,1-4.12,2.32A19.4,19.4,0,0,1,1059.33,399.31Zm2.2-5.3a11.25,11.25,0,0,0,4.65-.89,8.53,8.53,0,0,0,3.1-2.27v-4.47h-8.17q-4.69,0-4.7,3.88C1056.41,392.76,1058.11,394,1061.53,394Z"/><path class="cls-2" d="M1109.79,399.31c-2.74,0-4.73-.63-6-1.9s-1.87-3.3-1.87-6.08V358.56h8v32.11a2.78,2.78,0,0,0,.6,2.06,2.38,2.38,0,0,0,1.72.57,8.82,8.82,0,0,0,2.81-.42v5.54A14.34,14.34,0,0,1,1109.79,399.31Z"/><path class="cls-2" d="M1169.73,398.72V370.48h7.45l.3,2.68a16.9,16.9,0,0,1,4.38-2.3,16,16,0,0,1,5.57-1q5.6,0,8.16,2.62t2.56,8.1v18.12h-8V381c0-1.91-.39-3.25-1.16-4s-2.22-1.19-4.32-1.19a9.2,9.2,0,0,0-3.73.83,10.33,10.33,0,0,0-3.13,2.09v20Z"/><path class="cls-2" d="M1231.16,399.31a12.43,12.43,0,0,1-5-1,8.68,8.68,0,0,1-3.69-2.92,8.1,8.1,0,0,1-1.4-4.86,8.3,8.3,0,0,1,3-6.67c2-1.67,4.87-2.5,8.73-2.5h8.34v-.78a4.29,4.29,0,0,0-1.46-3.69q-1.45-1.07-5.87-1.07a29,29,0,0,0-9.29,1.49v-5.66a24.7,24.7,0,0,1,4.79-1.28,34.85,34.85,0,0,1,6.17-.51q6.38,0,9.86,2.59c2.32,1.73,3.49,4.5,3.49,8.31v17.94h-7l-.41-2.56a12,12,0,0,1-4.11,2.32A19.46,19.46,0,0,1,1231.16,399.31Zm2.2-5.3a11.25,11.25,0,0,0,4.65-.89,8.53,8.53,0,0,0,3.1-2.27v-4.47H1233q-4.71,0-4.71,3.88T1233.36,394Z"/><path class="cls-2" d="M1285,399.31q-4.89,0-7.24-2.56a9.9,9.9,0,0,1-2.35-7V376.67h-4v-6.19h4V364.4l8-2.39v8.47h7.15l-.47,6.19h-6.68v12.57a3.93,3.93,0,0,0,1.07,3.19,5.28,5.28,0,0,0,3.34.87,10.87,10.87,0,0,0,3.46-.6v5.54a13.79,13.79,0,0,1-2.86.81A21.48,21.48,0,0,1,1285,399.31Z"/><path class="cls-2" d="M1316.48,398.72V376.43h-4.23l.71-5.95h11.56v28.24Zm-.66-33.43V359h8.76v6.31Z"/><path class="cls-2" d="M1358.61,398.72l-11.15-28.24h8.4l7,20.13,7.1-20.13h8.34l-11.09,28.24Z"/><path class="cls-2" d="M1413.9,399.31q-7.34,0-11.62-3.66T1398,384.54q0-6.74,3.6-10.7t10.76-4q6.56,0,10,3.43a12,12,0,0,1,3.48,9v5.13h-20.43a6.1,6.1,0,0,0,3.12,4.64,15.75,15.75,0,0,0,7,1.26,26.28,26.28,0,0,0,4.62-.42,21.84,21.84,0,0,0,4-1.07v5.72a19,19,0,0,1-4.58,1.34A35.07,35.07,0,0,1,1413.9,399.31Zm-8.46-16.86h13.4V380.9a5.09,5.09,0,0,0-1.43-3.84q-1.42-1.4-4.82-1.4c-2.67,0-4.52.54-5.57,1.61S1405.44,380.07,1405.44,382.45Z"/><path class="cls-2" d="M1459.6,399.31a40,40,0,0,1-6-.44,23.38,23.38,0,0,1-4.59-1.11v-6.67a23,23,0,0,0,4.71,1.28,28.64,28.64,0,0,0,4.82.45,16.91,16.91,0,0,0,4.21-.36,1.54,1.54,0,0,0,1.22-1.61c0-1-.63-1.65-1.88-2.08s-3.11-1-5.57-1.85a17.33,17.33,0,0,1-6-3.16,6.94,6.94,0,0,1-2.09-5.48,7.29,7.29,0,0,1,3-6.23q3-2.18,9.51-2.17a29.89,29.89,0,0,1,4.94.39,26.58,26.58,0,0,1,3.94.92v6.61a15.16,15.16,0,0,0-3.7-1.16,21.08,21.08,0,0,0-3.87-.38,18.47,18.47,0,0,0-4.08.35c-1,.24-1.52.76-1.52,1.55s.54,1.49,1.64,1.85,2.79.89,5.09,1.61a22.19,22.19,0,0,1,5.3,2.2,6.86,6.86,0,0,1,2.68,2.83,9.52,9.52,0,0,1,.78,4.08Q1472.11,399.31,1459.6,399.31Z"/></g></g></svg>