<svg xmlns="http://www.w3.org/2000/svg" xmlns:xlink="http://www.w3.org/1999/xlink" viewBox="0 0 815 722.2"><defs><style>.cls-1{fill:none;}.cls-2{fill:#fff;}.cls-3{fill:url(#radial-gradient);}</style><radialGradient id="radial-gradient" cx="272.56" cy="301.81" r="314.68" gradientUnits="userSpaceOnUse"><stop offset="0" stop-color="#1f2d39"/><stop offset="0.4" stop-color="#1f2a36" stop-opacity="0.47"/><stop offset="0.76" stop-color="#1f2935" stop-opacity="0.12"/><stop offset="1" stop-color="#1f2834" stop-opacity="0"/></radialGradient></defs><g id="Layer_2" data-name="Layer 2"><g id="Layer_1-2" data-name="Layer 1"><rect class="cls-1" width="815" height="722.2"/><path class="cls-2" d="M103,649q-14.36,0-20.61-6.26t-6.26-20.05V523.09h29.62V619.7c0,2.82.59,4.75,1.75,5.79a7.64,7.64,0,0,0,5.25,1.57,27.86,27.86,0,0,0,8.83-1.29v20.05a44.44,44.44,0,0,1-8.37,2.4A60.87,60.87,0,0,1,103,649Z"/><path class="cls-2" d="M160,649A39.7,39.7,0,0,1,144.65,646a25.06,25.06,0,0,1-11.31-9.11q-4.25-6.17-4.24-15.37,0-13.42,9.11-21.07t27.33-7.63h24.29v-2q0-6.63-4.42-9.48t-16.56-2.85a95.21,95.21,0,0,0-29.26,4.6V563.94a80.9,80.9,0,0,1,15.73-4.23,111.1,111.1,0,0,1,19.6-1.66q20.24,0,31.74,8.28t11.5,26.32v54.46H192.22l-1.47-7.36a32.37,32.37,0,0,1-12.24,6.81A61.41,61.41,0,0,1,160,649Zm9.38-18.22a28.57,28.57,0,0,0,12.15-2.39,23.76,23.76,0,0,0,8.28-6.07V609.94h-21q-13.07,0-13.06,10.49A9.28,9.28,0,0,0,159.1,628Q162.4,630.73,169.4,630.73Z"/><path class="cls-2" d="M236,647.11V559.89h27.6l.92,7.55A57.17,57.17,0,0,1,278,560.91a51.72,51.72,0,0,1,17.3-2.86q16.92,0,24.66,8.1t7.72,25v55.94H298V593.57q0-7.37-3.13-10.49T283.67,580a24,24,0,0,0-9.76,2.21,27.12,27.12,0,0,0-8.28,5.52v59.43Z"/><path class="cls-2" d="M383,679.5q-6.45,0-13.62-.56c-4.78-.36-9.32-.92-13.62-1.65a83.42,83.42,0,0,1-11-2.58V654.47a96.3,96.3,0,0,0,17.67,3.68,153.35,153.35,0,0,0,18.95,1.29q11.22,0,16.84-1.2t5.61-4.14a3.44,3.44,0,0,0-2.21-3.49c-1.47-.62-4.36-.92-8.65-.92h-24.1q-11.78,0-18.31-4.24A13.74,13.74,0,0,1,344,633.13a18.25,18.25,0,0,1,3.4-10.49,19.87,19.87,0,0,1,10-7.36A29.19,29.19,0,0,1,346,605.53q-3.85-5.89-3.86-14.91,0-16.92,10.95-24.75t32.1-7.82a84.22,84.22,0,0,1,9.85.65c3.62.43,6.28.83,8,1.19h33.49l-.73,18.4h-12.7q4.59,4.61,4.6,13.62,0,12.69-8.19,20.43t-24.75,7.72a53.94,53.94,0,0,1-5.43-.27c-1.78-.19-3.52-.34-5.24-.46a29.22,29.22,0,0,0-8.19,2q-3.4,1.47-3.4,4.23a2.87,2.87,0,0,0,1.75,2.95,14.21,14.21,0,0,0,5.24.73h22.26q13.44,0,20.89,6.17t7.45,17.94Q430.13,679.5,383,679.5Zm2.39-75.81q9.75,0,13.43-3.32c2.45-2.2,3.68-5.89,3.68-11s-1.26-8.89-3.77-11.22-7-3.5-13.34-3.5q-9,0-13,3.41t-4,11.31q0,7.36,3.68,10.86T385.42,603.69Z"/><path class="cls-2" d="M476.13,647.11l-34.41-87.22h30.92l19.13,56.68,19.32-56.68H542L507.6,647.11Z"/><path class="cls-2" d="M593.71,649q-22.82,0-36.61-11.31T543.3,603.5q0-20.79,11.4-33.12t34.23-12.33q20.79,0,32.2,10.68t11.41,28.7v15.64H570.71q2,8.65,9.48,12t20.33,3.41a85.74,85.74,0,0,0,14.63-1.29,60.84,60.84,0,0,0,12.42-3.31v19.32a55.69,55.69,0,0,1-14.91,4.32A120.54,120.54,0,0,1,593.71,649Zm-23-53h36.07v-3.87q0-6.44-3.87-10.21t-13.06-3.77q-10.68,0-14.91,4.32T570.71,596Z"/><path class="cls-2" d="M684.24,649q-12.69,0-21.71-4.05a28.22,28.22,0,0,1-13.8-13.34q-4.79-9.28-4.78-24.93,0-15.82,5.51-26.59a39,39,0,0,1,15.19-16.38,43.31,43.31,0,0,1,22.17-5.61,46.37,46.37,0,0,1,12.23,1.48,38.79,38.79,0,0,1,10.22,4.41V523.09h29.62v124H713.31l-1.65-7.36a36.36,36.36,0,0,1-12,6.9A47.24,47.24,0,0,1,684.24,649Zm8.47-21.53a22.89,22.89,0,0,0,16.56-6.62V585.47q-6.27-5.7-16-5.71-9.39,0-14.26,7.09t-4.88,20q0,12.53,4.69,16.56T692.71,627.42Z"/><path class="cls-2" d="M379.33,75.12v37.56l68.39,34.2a12.16,12.16,0,0,1,6.73,10.89V432c0,24.37-32.8,47.39-75.12,37.56v56.34L604.7,413.18V75.12Z"/><polygon class="cls-2" points="210.3 103.29 210.3 385 379.33 469.52 379.33 187.81 210.3 103.29"/><path class="cls-2" d="M398.09,178.38C424.68,183,444.2,169,435.65,159.6l-169-84.48V93.9l-18.78,9.39L379.33,169Z"/><path class="cls-3" d="M454.45,338.05V432c0,9.17-4.65,18.16-12.71,25.27l125.53-62.77Z"/></g></g></svg>